<svg xmlns="http://www.w3.org/2000/svg" viewBox="0 0 630.0 780.0" width="630.0" height="780.0">
  <defs>
    <style>
      text { font-family: 'Segoe UI', 'Helvetica Neue', Arial, sans-serif; }
      .desk-card { fill: white; stroke: #bfbfbf; stroke-width: 1; rx: 4; ry: 4; }
      .desk-accent { stroke: #C0392B; stroke-width: 2; stroke-linecap: round; }
      .desk-label { font-size: 11px; fill: #3c3c3c; text-anchor: middle; dominant-baseline: central; }
      .desk-label-sm { font-size: 9px; fill: #3c3c3c; text-anchor: middle; dominant-baseline: central; }
      .room-border { fill: #fafafa; stroke: #c0c0c0; stroke-width: 1; rx: 5; ry: 5; }
      .room-label { font-size: 13px; font-weight: 600; fill: #C0392B; text-anchor: middle; dominant-baseline: central; }
      .room-label-bg { fill: #fce8e6; rx: 4; ry: 4; }
      .area-label { font-size: 12px; font-weight: 600; fill: #3c3c3c; text-anchor: middle; dominant-baseline: central; }
      .area-label-sm { font-size: 10px; font-weight: 600; fill: #666666; text-anchor: middle; dominant-baseline: central; }
      .outer { fill: none; stroke: #cccccc; stroke-width: 1; rx: 6; ry: 6; }
      .shadow { fill: rgba(0,0,0,0.04); }
    </style>
  </defs>
  <rect x="45.0" y="45.0" width="540" height="690" class="outer"/>
  <rect x="75.0" y="75.0" width="180" height="54.0" fill="#f0f0f0" stroke="#c0c0c0" stroke-width="1" rx="5" ry="5"/>
  <text x="165.0" y="102.0" class="area-label">DESK INGRESSO</text>
  <rect x="75.0" y="150.0" width="420" height="165.0" class="room-border"/>
  <rect x="253.0" y="160.0" width="64" height="20" class="room-label-bg"/>
  <text x="285.0" y="171.0" class="room-label">ROOM 1</text>
  <rect x="97.0" y="199.0" width="96.0" height="48.0" rx="4" ry="4" class="shadow"/>
  <rect x="96.0" y="198.0" width="96.0" height="48.0" class="desk-card"/>
  <line x1="102.0" y1="200.0" x2="186.0" y2="200.0" class="desk-accent"/>
  <text x="144.0" y="223.0" class="desk-label-sm">MI-desk-T1.1</text>
  <rect x="202.0" y="199.0" width="96.0" height="48.0" rx="4" ry="4" class="shadow"/>
  <rect x="201.0" y="198.0" width="96.0" height="48.0" class="desk-card"/>
  <line x1="207.0" y1="200.0" x2="291.0" y2="200.0" class="desk-accent"/>
  <text x="249.0" y="223.0" class="desk-label-sm">MI-desk-T1.2</text>
  <rect x="307.0" y="199.0" width="96.0" height="48.0" rx="4" ry="4" class="shadow"/>
  <rect x="306.0" y="198.0" width="96.0" height="48.0" class="desk-card"/>
  <line x1="312.0" y1="200.0" x2="396.0" y2="200.0" class="desk-accent"/>
  <text x="354.0" y="223.0" class="desk-label-sm">MI-desk-T1.3</text>
  <rect x="412.0" y="199.0" width="96.0" height="48.0" rx="4" ry="4" class="shadow"/>
  <rect x="411.0" y="198.0" width="96.0" height="48.0" class="desk-card"/>
  <line x1="417.0" y1="200.0" x2="501.0" y2="200.0" class="desk-accent"/>
  <text x="459.0" y="223.0" class="desk-label-sm">MI-desk-T1.4</text>
  <rect x="97.0" y="256.0" width="96.0" height="48.0" rx="4" ry="4" class="shadow"/>
  <rect x="96.0" y="255.0" width="96.0" height="48.0" class="desk-card"/>
  <line x1="102.0" y1="257.0" x2="186.0" y2="257.0" class="desk-accent"/>
  <text x="144.0" y="280.0" class="desk-label-sm">MI-desk-T1.5</text>
  <rect x="202.0" y="256.0" width="96.0" height="48.0" rx="4" ry="4" class="shadow"/>
  <rect x="201.0" y="255.0" width="96.0" height="48.0" class="desk-card"/>
  <line x1="207.0" y1="257.0" x2="291.0" y2="257.0" class="desk-accent"/>
  <text x="249.0" y="280.0" class="desk-label-sm">MI-desk-T1.6</text>
  <rect x="307.0" y="256.0" width="96.0" height="48.0" rx="4" ry="4" class="shadow"/>
  <rect x="306.0" y="255.0" width="96.0" height="48.0" class="desk-card"/>
  <line x1="312.0" y1="257.0" x2="396.0" y2="257.0" class="desk-accent"/>
  <text x="354.0" y="280.0" class="desk-label-sm">MI-desk-T1.7</text>
  <rect x="412.0" y="256.0" width="96.0" height="48.0" rx="4" ry="4" class="shadow"/>
  <rect x="411.0" y="255.0" width="96.0" height="48.0" class="desk-card"/>
  <line x1="417.0" y1="257.0" x2="501.0" y2="257.0" class="desk-accent"/>
  <text x="459.0" y="280.0" class="desk-label-sm">MI-desk-T1.8</text>
  <rect x="75.0" y="339.0" width="495.0" height="375.0" class="room-border"/>
  <rect x="290.5" y="349.0" width="64" height="20" class="room-label-bg"/>
  <text x="322.5" y="360.0" class="room-label">ROOM 2</text>
  <rect x="91.0" y="388.0" width="96.0" height="48.0" rx="4" ry="4" class="shadow"/>
  <rect x="90.0" y="387.0" width="96.0" height="48.0" class="desk-card"/>
  <line x1="96.0" y1="389.0" x2="180.0" y2="389.0" class="desk-accent"/>
  <text x="138.0" y="412.0" class="desk-label-sm">MI-desk-T2.1</text>
  <rect x="196.0" y="388.0" width="96.0" height="48.0" rx="4" ry="4" class="shadow"/>
  <rect x="195.0" y="387.0" width="96.0" height="48.0" class="desk-card"/>
  <line x1="201.0" y1="389.0" x2="285.0" y2="389.0" class="desk-accent"/>
  <text x="243.0" y="412.0" class="desk-label-sm">MI-desk-T2.2</text>
  <rect x="301.0" y="388.0" width="96.0" height="48.0" rx="4" ry="4" class="shadow"/>
  <rect x="300.0" y="387.0" width="96.0" height="48.0" class="desk-card"/>
  <line x1="306.0" y1="389.0" x2="390.0" y2="389.0" class="desk-accent"/>
  <text x="348.0" y="412.0" class="desk-label-sm">MI-desk-T2.3</text>
  <rect x="406.0" y="388.0" width="96.0" height="48.0" rx="4" ry="4" class="shadow"/>
  <rect x="405.0" y="387.0" width="96.0" height="48.0" class="desk-card"/>
  <line x1="411.0" y1="389.0" x2="495.0" y2="389.0" class="desk-accent"/>
  <text x="453.0" y="412.0" class="desk-label-sm">MI-desk-T2.4</text>
  <rect x="511.0" y="388.0" width="96.0" height="48.0" rx="4" ry="4" class="shadow"/>
  <rect x="510.0" y="387.0" width="96.0" height="48.0" class="desk-card"/>
  <line x1="516.0" y1="389.0" x2="600.0" y2="389.0" class="desk-accent"/>
  <text x="558.0" y="412.0" class="desk-label-sm">MI-desk-T2.5</text>
  <rect x="91.0" y="457.0" width="96.0" height="48.0" rx="4" ry="4" class="shadow"/>
  <rect x="90.0" y="456.0" width="96.0" height="48.0" class="desk-card"/>
  <line x1="96.0" y1="458.0" x2="180.0" y2="458.0" class="desk-accent"/>
  <text x="138.0" y="481.0" class="desk-label-sm">MI-desk-T2.6</text>
  <rect x="196.0" y="457.0" width="96.0" height="48.0" rx="4" ry="4" class="shadow"/>
  <rect x="195.0" y="456.0" width="96.0" height="48.0" class="desk-card"/>
  <line x1="201.0" y1="458.0" x2="285.0" y2="458.0" class="desk-accent"/>
  <text x="243.0" y="481.0" class="desk-label-sm">MI-desk-T2.7</text>
  <rect x="301.0" y="457.0" width="96.0" height="48.0" rx="4" ry="4" class="shadow"/>
  <rect x="300.0" y="456.0" width="96.0" height="48.0" class="desk-card"/>
  <line x1="306.0" y1="458.0" x2="390.0" y2="458.0" class="desk-accent"/>
  <text x="348.0" y="481.0" class="desk-label-sm">MI-desk-T2.8</text>
  <rect x="406.0" y="457.0" width="96.0" height="48.0" rx="4" ry="4" class="shadow"/>
  <rect x="405.0" y="456.0" width="96.0" height="48.0" class="desk-card"/>
  <line x1="411.0" y1="458.0" x2="495.0" y2="458.0" class="desk-accent"/>
  <text x="453.0" y="481.0" class="desk-label-sm">MI-desk-T2.9</text>
  <rect x="511.0" y="457.0" width="96.0" height="48.0" rx="4" ry="4" class="shadow"/>
  <rect x="510.0" y="456.0" width="96.0" height="48.0" class="desk-card"/>
  <line x1="516.0" y1="458.0" x2="600.0" y2="458.0" class="desk-accent"/>
  <text x="558.0" y="481.0" class="desk-label-sm">MI-desk-T2.10</text>
  <rect x="91.0" y="526.0" width="96.0" height="48.0" rx="4" ry="4" class="shadow"/>
  <rect x="90.0" y="525.0" width="96.0" height="48.0" class="desk-card"/>
  <line x1="96.0" y1="527.0" x2="180.0" y2="527.0" class="desk-accent"/>
  <text x="138.0" y="550.0" class="desk-label-sm">MI-desk-T2.11</text>
  <rect x="196.0" y="526.0" width="96.0" height="48.0" rx="4" ry="4" class="shadow"/>
  <rect x="195.0" y="525.0" width="96.0" height="48.0" class="desk-card"/>
  <line x1="201.0" y1="527.0" x2="285.0" y2="527.0" class="desk-accent"/>
  <text x="243.0" y="550.0" class="desk-label-sm">MI-desk-T2.12</text>
  <rect x="301.0" y="526.0" width="96.0" height="48.0" rx="4" ry="4" class="shadow"/>
  <rect x="300.0" y="525.0" width="96.0" height="48.0" class="desk-card"/>
  <line x1="306.0" y1="527.0" x2="390.0" y2="527.0" class="desk-accent"/>
  <text x="348.0" y="550.0" class="desk-label-sm">MI-desk-T2.13</text>
  <rect x="406.0" y="526.0" width="96.0" height="48.0" rx="4" ry="4" class="shadow"/>
  <rect x="405.0" y="525.0" width="96.0" height="48.0" class="desk-card"/>
  <line x1="411.0" y1="527.0" x2="495.0" y2="527.0" class="desk-accent"/>
  <text x="453.0" y="550.0" class="desk-label-sm">MI-desk-T2.14</text>
  <rect x="511.0" y="526.0" width="96.0" height="48.0" rx="4" ry="4" class="shadow"/>
  <rect x="510.0" y="525.0" width="96.0" height="48.0" class="desk-card"/>
  <line x1="516.0" y1="527.0" x2="600.0" y2="527.0" class="desk-accent"/>
  <text x="558.0" y="550.0" class="desk-label-sm">MI-desk-T2.15</text>
  <rect x="91.0" y="595.0" width="96.0" height="48.0" rx="4" ry="4" class="shadow"/>
  <rect x="90.0" y="594.0" width="96.0" height="48.0" class="desk-card"/>
  <line x1="96.0" y1="596.0" x2="180.0" y2="596.0" class="desk-accent"/>
  <text x="138.0" y="619.0" class="desk-label-sm">MI-desk-T2.16</text>
  <rect x="196.0" y="595.0" width="96.0" height="48.0" rx="4" ry="4" class="shadow"/>
  <rect x="195.0" y="594.0" width="96.0" height="48.0" class="desk-card"/>
  <line x1="201.0" y1="596.0" x2="285.0" y2="596.0" class="desk-accent"/>
  <text x="243.0" y="619.0" class="desk-label-sm">MI-desk-T2.17</text>
  <rect x="301.0" y="595.0" width="96.0" height="48.0" rx="4" ry="4" class="shadow"/>
  <rect x="300.0" y="594.0" width="96.0" height="48.0" class="desk-card"/>
  <line x1="306.0" y1="596.0" x2="390.0" y2="596.0" class="desk-accent"/>
  <text x="348.0" y="619.0" class="desk-label-sm">MI-desk-T2.18</text>
</svg>
